<mxfile host="Electron" modified="2023-05-30T07:25:10.851Z" agent="Mozilla/5.0 (Windows NT 10.0; Win64; x64) AppleWebKit/537.36 (KHTML, like Gecko) draw.io/21.2.8 Chrome/112.0.5615.165 Electron/24.2.0 Safari/537.36" etag="IVVhLjXsxtHL8QV2Nw4Q" version="21.2.8" type="device">
  <diagram name="Page-1" id="2c0d36ab-eaac-3732-788b-9136903baeff">
    <mxGraphModel dx="1666" dy="962" grid="1" gridSize="10" guides="1" tooltips="1" connect="1" arrows="1" fold="1" page="1" pageScale="1.5" pageWidth="1169" pageHeight="827" background="none" math="0" shadow="0">
      <root>
        <mxCell id="0" />
        <mxCell id="1" parent="0" />
        <mxCell id="PJ9aeR7F_5IVmo7rNQFh-115" style="edgeStyle=orthogonalEdgeStyle;rounded=0;orthogonalLoop=1;jettySize=auto;html=1;strokeWidth=2;" parent="1" source="2" target="PJ9aeR7F_5IVmo7rNQFh-114" edge="1">
          <mxGeometry relative="1" as="geometry" />
        </mxCell>
        <mxCell id="PJ9aeR7F_5IVmo7rNQFh-121" style="edgeStyle=orthogonalEdgeStyle;rounded=0;orthogonalLoop=1;jettySize=auto;html=1;strokeWidth=2;" parent="1" source="2" target="PJ9aeR7F_5IVmo7rNQFh-120" edge="1">
          <mxGeometry relative="1" as="geometry">
            <Array as="points">
              <mxPoint x="852" y="300" />
              <mxPoint x="595" y="300" />
            </Array>
          </mxGeometry>
        </mxCell>
        <mxCell id="PJ9aeR7F_5IVmo7rNQFh-127" style="edgeStyle=orthogonalEdgeStyle;rounded=0;orthogonalLoop=1;jettySize=auto;html=1;strokeWidth=2;" parent="1" source="2" target="PJ9aeR7F_5IVmo7rNQFh-125" edge="1">
          <mxGeometry relative="1" as="geometry">
            <Array as="points">
              <mxPoint x="852" y="300" />
              <mxPoint x="1105" y="300" />
            </Array>
          </mxGeometry>
        </mxCell>
        <mxCell id="2" value="Home" style="rounded=1;fillColor=none;gradientColor=none;strokeColor=default;fontColor=#000000;fontStyle=1;fontFamily=Tahoma;fontSize=14;strokeWidth=2;" parent="1" vertex="1">
          <mxGeometry x="757" y="185.5" width="190" height="80" as="geometry" />
        </mxCell>
        <mxCell id="4" value="Paramètres utilisateur" style="rounded=1;fillColor=none;gradientColor=none;strokeColor=default;fontColor=default;fontStyle=1;fontFamily=Tahoma;fontSize=14;strokeWidth=2;" parent="1" vertex="1">
          <mxGeometry x="1259.9999999999998" y="335.5" width="190" height="80" as="geometry" />
        </mxCell>
        <mxCell id="9" value="" style="edgeStyle=elbowEdgeStyle;elbow=vertical;strokeWidth=2;rounded=0" parent="1" source="2" target="4" edge="1">
          <mxGeometry x="337" y="215.5" width="100" height="100" as="geometry">
            <mxPoint x="337" y="315.5" as="sourcePoint" />
            <mxPoint x="437" y="215.5" as="targetPoint" />
          </mxGeometry>
        </mxCell>
        <mxCell id="PJ9aeR7F_5IVmo7rNQFh-123" style="edgeStyle=orthogonalEdgeStyle;rounded=0;orthogonalLoop=1;jettySize=auto;html=1;entryX=0;entryY=0.5;entryDx=0;entryDy=0;strokeWidth=2;" parent="1" source="13" target="PJ9aeR7F_5IVmo7rNQFh-122" edge="1">
          <mxGeometry relative="1" as="geometry">
            <Array as="points">
              <mxPoint x="210" y="376" />
              <mxPoint x="210" y="486" />
            </Array>
          </mxGeometry>
        </mxCell>
        <mxCell id="13" value="Liste des batteries" style="rounded=1;fillColor=none;gradientColor=none;strokeColor=default;fontColor=default;fontStyle=1;fontFamily=Tahoma;fontSize=14;strokeWidth=2;" parent="1" vertex="1">
          <mxGeometry x="240" y="335.5" width="190" height="80" as="geometry" />
        </mxCell>
        <mxCell id="61" value="" style="edgeStyle=elbowEdgeStyle;elbow=vertical;strokeWidth=2;rounded=0" parent="1" target="13" edge="1">
          <mxGeometry x="-23" y="135.5" width="100" height="100" as="geometry">
            <mxPoint x="852" y="266" as="sourcePoint" />
            <mxPoint x="77" y="135.5" as="targetPoint" />
          </mxGeometry>
        </mxCell>
        <mxCell id="PJ9aeR7F_5IVmo7rNQFh-108" value="" style="edgeStyle=orthogonalEdgeStyle;rounded=0;orthogonalLoop=1;jettySize=auto;html=1;endArrow=none;endFill=0;strokeWidth=2;" parent="1" source="PJ9aeR7F_5IVmo7rNQFh-107" target="2" edge="1">
          <mxGeometry relative="1" as="geometry" />
        </mxCell>
        <mxCell id="PJ9aeR7F_5IVmo7rNQFh-113" style="edgeStyle=orthogonalEdgeStyle;rounded=0;orthogonalLoop=1;jettySize=auto;html=1;entryX=0.5;entryY=0;entryDx=0;entryDy=0;strokeWidth=2;endArrow=none;endFill=0;" parent="1" source="PJ9aeR7F_5IVmo7rNQFh-107" target="PJ9aeR7F_5IVmo7rNQFh-109" edge="1">
          <mxGeometry relative="1" as="geometry">
            <Array as="points">
              <mxPoint x="595" y="140" />
              <mxPoint x="1105" y="140" />
            </Array>
          </mxGeometry>
        </mxCell>
        <mxCell id="PJ9aeR7F_5IVmo7rNQFh-107" value="Login" style="rounded=1;fillColor=none;gradientColor=none;strokeColor=default;fontColor=#000000;fontStyle=1;fontFamily=Tahoma;fontSize=14;strokeWidth=2;" parent="1" vertex="1">
          <mxGeometry x="500" y="185.5" width="190" height="80" as="geometry" />
        </mxCell>
        <mxCell id="PJ9aeR7F_5IVmo7rNQFh-110" value="" style="edgeStyle=orthogonalEdgeStyle;rounded=0;orthogonalLoop=1;jettySize=auto;html=1;endArrow=classic;endFill=1;strokeWidth=2;startArrow=none;startFill=0;" parent="1" source="PJ9aeR7F_5IVmo7rNQFh-109" target="2" edge="1">
          <mxGeometry relative="1" as="geometry" />
        </mxCell>
        <mxCell id="PJ9aeR7F_5IVmo7rNQFh-109" value="Register" style="rounded=1;fillColor=none;gradientColor=none;strokeColor=default;fontColor=default;fontStyle=1;fontFamily=Tahoma;fontSize=14;strokeWidth=2;" parent="1" vertex="1">
          <mxGeometry x="1010" y="185.5" width="190" height="80" as="geometry" />
        </mxCell>
        <mxCell id="PJ9aeR7F_5IVmo7rNQFh-117" value="" style="edgeStyle=orthogonalEdgeStyle;rounded=0;orthogonalLoop=1;jettySize=auto;html=1;strokeWidth=2;" parent="1" source="PJ9aeR7F_5IVmo7rNQFh-114" target="PJ9aeR7F_5IVmo7rNQFh-116" edge="1">
          <mxGeometry relative="1" as="geometry">
            <Array as="points">
              <mxPoint x="740" y="376" />
              <mxPoint x="740" y="486" />
            </Array>
          </mxGeometry>
        </mxCell>
        <mxCell id="PJ9aeR7F_5IVmo7rNQFh-114" value="Détail d&#39;un modèle" style="rounded=1;fillColor=none;gradientColor=none;strokeColor=default;fontColor=default;fontStyle=1;fontFamily=Tahoma;fontSize=14;strokeWidth=2;" parent="1" vertex="1">
          <mxGeometry x="756.9999999999998" y="335.5" width="190" height="80" as="geometry" />
        </mxCell>
        <mxCell id="PJ9aeR7F_5IVmo7rNQFh-116" value="Modification d&#39;un&#xa;modèle" style="rounded=1;fillColor=none;gradientColor=none;strokeColor=default;fontColor=default;fontStyle=1;fontFamily=Tahoma;fontSize=14;strokeWidth=2;" parent="1" vertex="1">
          <mxGeometry x="787" y="455.5" width="130" height="60" as="geometry" />
        </mxCell>
        <mxCell id="PJ9aeR7F_5IVmo7rNQFh-120" value="Création d&#39;un modèle" style="rounded=1;fillColor=none;gradientColor=none;strokeColor=default;fontColor=default;fontStyle=1;fontFamily=Tahoma;fontSize=14;strokeWidth=2;" parent="1" vertex="1">
          <mxGeometry x="499.9999999999998" y="335.5" width="190" height="80" as="geometry" />
        </mxCell>
        <mxCell id="PJ9aeR7F_5IVmo7rNQFh-122" value="Création d&#39;une &#xa;batterie" style="rounded=1;fillColor=none;gradientColor=none;strokeColor=default;fontColor=default;fontStyle=1;fontFamily=Tahoma;fontSize=14;strokeWidth=2;" parent="1" vertex="1">
          <mxGeometry x="270" y="455.5" width="130" height="60" as="geometry" />
        </mxCell>
        <mxCell id="PJ9aeR7F_5IVmo7rNQFh-124" style="edgeStyle=orthogonalEdgeStyle;rounded=0;orthogonalLoop=1;jettySize=auto;html=1;entryX=0;entryY=0.5;entryDx=0;entryDy=0;strokeWidth=2;" parent="1" source="PJ9aeR7F_5IVmo7rNQFh-125" target="PJ9aeR7F_5IVmo7rNQFh-126" edge="1">
          <mxGeometry relative="1" as="geometry">
            <Array as="points">
              <mxPoint x="980" y="376" />
              <mxPoint x="980" y="486" />
            </Array>
          </mxGeometry>
        </mxCell>
        <mxCell id="PJ9aeR7F_5IVmo7rNQFh-125" value="Liste des moteurs" style="rounded=1;fillColor=none;gradientColor=none;strokeColor=default;fontColor=default;fontStyle=1;fontFamily=Tahoma;fontSize=14;strokeWidth=2;" parent="1" vertex="1">
          <mxGeometry x="1010" y="335.5" width="190" height="80" as="geometry" />
        </mxCell>
        <mxCell id="PJ9aeR7F_5IVmo7rNQFh-126" value="Création d&#39;un&#xa;moteur" style="rounded=1;fillColor=none;gradientColor=none;strokeColor=default;fontColor=default;fontStyle=1;fontFamily=Tahoma;fontSize=14;strokeWidth=2;" parent="1" vertex="1">
          <mxGeometry x="1040" y="455.5" width="130" height="60" as="geometry" />
        </mxCell>
      </root>
    </mxGraphModel>
  </diagram>
</mxfile>
